<svg xmlns="http://www.w3.org/2000/svg" xmlns:xlink="http://www.w3.org/1999/xlink" version="1.1" x="0px" y="0px" viewBox="0 0 64 80" style="enable-background:new 0 0 64 64;" xml:space="preserve"><title>Checkout</title><rect x="10" y="32" width="4" height="2"/><rect x="8" y="36" width="6" height="2"/><rect x="6" y="40" width="8" height="2"/><path d="M45.3,48.6l6.2-30c0.3-1.6-0.7-3.2-2.3-3.5C49,15,48.7,15,48.5,15H48V7h-8V5H24v4h-6v6h-3.6L12.3,4.4C12,3,10.8,2,9.4,2H2v2  h7.4c0.5,0,0.9,0.3,1,0.8l10.4,51.8C21,58,22.2,59,23.6,59h2.5c0.5,2.1,2.7,3.4,4.8,2.9c1.4-0.4,2.5-1.5,2.9-2.9h5.3  c0.6,2.1,2.7,3.4,4.9,2.9c2.1-0.6,3.4-2.7,2.9-4.9s-2.7-3.4-4.9-2.9c-1.4,0.4-2.5,1.5-2.9,2.9h-5.3c-0.5-2.1-2.7-3.4-4.8-2.9  c-1.4,0.4-2.5,1.5-2.9,2.9h-2.5c-0.5,0-0.9-0.3-1-0.8l-1-5.2h20.8C43.8,51,45,50,45.3,48.6z M44,9h2v6h-2V9z M36,7h2v8h-2V7z M26,7  h8v8h-2V9h-6V7z M24,11h6v4h-6V11z M20,11h2v4h-2V11z M36,42H23v-2h13V42z M40,34H21v-2h19V34z M42,26H20v-2h22V26z M42,15h-2V9h2  V15z"/><text x="0" y="79" fill="#000000" font-size="5px" font-weight="bold" font-family="'Helvetica Neue', Helvetica, Arial-Unicode, Arial, Sans-serif">Created by Wichai Wi</text><text x="0" y="84" fill="#000000" font-size="5px" font-weight="bold" font-family="'Helvetica Neue', Helvetica, Arial-Unicode, Arial, Sans-serif">from the Noun Project</text></svg>